<?xml version="1.0" encoding="utf-8"?>
<!-- Generator: Adobe Illustrator 15.1.0, SVG Export Plug-In . SVG Version: 6.00 Build 0)  -->
<!DOCTYPE svg PUBLIC "-//W3C//DTD SVG 1.1//EN" "http://www.w3.org/Graphics/SVG/1.1/DTD/svg11.dtd">
<svg version="1.1" id="Layer_1" xmlns="http://www.w3.org/2000/svg" xmlns:xlink="http://www.w3.org/1999/xlink" x="0px" y="0px"
	 width="500px" height="500px" viewBox="0 0 500 500" enable-background="new 0 0 500 500" xml:space="preserve">
<path fill="#58595B" d="M448.393,328.97l-1.57-3.98l0.938-0.875h-1.282l-20.9-52.998l-7.305-50.321l0.346-0.705l-0.565-0.053
	l-12.908-34.493l-0.021-0.056L384.02,149.57l-0.225-0.381l-27.932-19.781l-0.026-0.02l-27.035-9.076l-0.175-0.059l-40.67,8.304
	l-0.499-0.421l-0.175,0.483l-37.922,0.703l-29.893,4.101l-0.489-0.546l-0.274,0.667l-25.8,4.69l-0.017-0.288l-0.689,0.36
	l-29.089-9.654l-22.374-8.156l0.778-12.346l4.092-18.009l0.009-0.042l-3.428-21.935l-13.928,6.612l-1.849,1.009l-0.467-0.524
	l-0.266,0.921l-14.144,7.714l-0.604,0.329l-9.339,18.324l-0.325-0.524l-0.205,1.262l-18.98,0.791l-11.777-0.785L65.533,90.57
	l-0.014-0.039L54.161,77.553l-0.026-0.377l-0.476-0.026L34.895,65.545l-0.09-0.057l-9.76,3.194v19.758l0.049,0.25l-0.031,0.027
	l0.049,0.058l3.684,16.982l-0.197,0.637l0.343,0.034l0.213,0.972l8.865,21.82l-4.871,7.264l5.774,20.622v19.729l8.305,4.34
	l6.436,16.329l6.658,9.398l8.415,5.719l-0.59,0.587h1.342l11.251,13.657l40.874,34.343l0.101,0.085l24.368,8.123l8.373,14.308
	l0.002,34.024l-5.223,32.347l-0.311,0.229l0.222,0.323l-2.304,14.255l-0.378-0.213l0.198,1.261l-8.028,31.308l-15.337,4.035
	l-7.26,9.073l15.419,5.996l0.229,0.089l23.93,0.016l6.278-15.973l6.544-18.819l7.341-26.917l8.314-27.211l4.254,14.173l6.467,14.56
	l-0.169,1l0.389-0.153l5.489,24.312l-0.247,0.624l0.32,0.043l1.552,20.961l-8.489,3.087l-0.082,0.028l-7.864,6.968l3.651,8.217
	h21.051l11.039-6.793l3.352-18.435l-4.071-12.216l0.148-0.562l-0.27-0.033l-4.819-29.718l-0.915-4.752l0.513-1.296l-0.708,0.281
	l-7.053-36.675l-2.019-10.991l0.129-0.771l-0.266,0.025l-5.041-27.449h36.77l23.028-4.76l3.175,26.972l0.039,0.95l0.314-0.124
	l11.938,23.873l5.625,16.073l0.044,0.125l0.807,26.637l-1.082,1.878l0.481-0.252l-7.393,19.228l-0.152,0.054l-0.008,0.322
	l-12.003,24.008l-8.691,0.789l-0.046,0.003l-10.903,5.872l-0.085,0.046l-3.534,11.737l11.336,4.115l0.057,0.021l24.156-3.929
	l15.688-25.008l13.108-27.037l10.205-26.939l0.068-0.183l-5.325-27.04l1.62-21.852l8.838-24.057l0.541-0.212l-0.245-0.336
	l11.35-17.451l20.665,38.945l14.865,30.351l-0.34,0.69h0.678l4.411,9.003l22.579,38.707l-0.073,0.066l0.222,0.268l-4.003,28.819
	l-9.078,7.428l2.626,16.011l28.951-5.35l2.358-21.998l22.664,21.102l0.109,0.103l18.253,6.042l0.075,0.025l30.808-11.059
	l0.191-0.068l-6.686-30.079L448.393,328.97z M253.687,409.106l6.449-0.587l-19.259,14.641l2.572-8.542L253.687,409.106z
	 M250.284,428.131l-9.255-3.356l21.263-16.162l10.438,15.869L250.284,428.131z M263.256,407.569l10.703-21.409l-0.714,36.595
	L263.256,407.569z M223.387,396.239l-3.179,17.482l-8.878,5.463l8.76-32.85L223.387,396.239z M130.252,414.418l-11.969-4.654
	l5.321-6.649L130.252,414.418z M153.611,415.091H132.88l6.538-15.985L153.611,415.091z M25.711,88.766l0.277-0.24l0.163,0.751
	L25.711,88.766z M484.263,412.592l-32.281-22.105l26.273-4.926L484.263,412.592z M437.51,418.438l-22.563-21.007l34.692-6.506
	l4.635,33.062L437.51,418.438z M450.858,389.294l-3.436-53.28l-0.443-6.871l0.158,0.403l30.576,54.714L450.858,389.294z
	 M445.416,326.299l4.027,62.449l-0.122-0.082l0.126,0.894l-35.697,6.692l-18.918-22.858L445.416,326.299z M329.531,222.223
	l-0.005,31.725l-11.586,17.815l-27.805-38.346l39.454-11.479L329.531,222.223z M305.407,321.46l-21.922,37.999l-0.73-24.115
	L305.407,321.46z M311.382,347.839l-9.449,24.948l-26.047,9.194l7.533-19.587L311.382,347.839z M284.646,360.202l22.393-38.811
	l4.851,24.63L284.646,360.202z M308.377,297.089l-26.111,36.399l-5.288-15.104l-11.93-23.867l51.746-20.337L308.377,297.089z
	 M288.222,233.123l-23.566,57.831l-0.903-22.108v-69.468L288.222,233.123z M202.705,404.893l6.47,15.095h-17.972L202.705,404.893z
	 M219.147,384.525l-9.081,34.049l-6.515-15.205l-1.563-21.083L219.147,384.525z M212.939,350.02l-11.523,29.152l-5.089-22.559
	L212.939,350.02z M206.277,311.423l7.104,36.938l-16.974,6.738l8.537-50.935L206.277,311.423z M189.646,341.271l-4.75-15.834
	l0.07-0.052l-0.22-0.446l-0.644-2.146l-0.151,0.494l-9.358-19.387l29.49-2.942l-8.863,52.874L189.646,341.271z M168.46,376.357
	l-17.648-25.715l32.018-23.679l-8.376,27.411L168.46,376.357z M61.325,205.937l-6.411-9.013l-5.729-14.537l16.253,10.229v9.667l0,0
	l9.301,4.359l-5.022,5.001L61.325,205.937z M31.687,96.402l-2.065,6.679l-2.637-12.134L31.687,96.402z M42.78,88.877l-8.856-11.454
	l18.917,1.061l1.456,22.077L42.78,88.877z M55.796,115.598V103.13l13.238,1.43l-3.36,23.897L55.796,115.598z M120.888,97.809
	l5.689-19.768l5.969,6.688L120.888,97.809z M219.417,135.432l40.679,45.504l-5.119,30.711l-58.726-19.791l0.138-0.227l-0.173-0.013
	L219.417,135.432z M202.401,270.604l52.642-27.63l4.966,22.889l-22.922,4.741H202.401z M150.817,348.924l4.965-30.726l17.516-13.814
	l9.93,20.572L150.817,348.924z M81.748,225.927l-10.473-12.718h11.117l1.293,1.167l-0.271-1.531l10.642-7.058l0.048-0.03
	l17.604-19.253l14.338,1.338v31.01l15.312,29l12.147,24.165l-6.457-3.678l-0.038-0.064l-24.611-8.203L81.748,225.927z
	 M40.293,156.772l-0.76-25.842l21.786,20.332H47.725l6.395,9.948h11.319v28.964L40.293,156.772z M37.376,105.842l-6.962-0.658
	l2.447-7.919L37.376,105.842z M66.6,131.773l24.343,28.061H66.613l-2.841-7.954L66.6,131.773z M65.405,130.367l-2.653,18.878
	l-12.758-32.725h4.775L65.405,130.367z M54.419,115.142h-5.172l-9.982-8.807l-0.002-0.315l-0.248-0.022l-5.87-11.152V78.668
	l8.58,11.094l12.694,12.884V115.142z M65.149,159.833H54.872l-4.624-7.193h12.333L65.149,159.833z M115.192,127.322l0.329,0.552
	l0.204-0.158l20.145,14.965l-23.259,12.792l-10.365-4.268l-0.132-0.054l-8.675,7.591l8.597-52.865l10.028,16.157l2.584,4.365
	l-0.523,0.126L115.192,127.322z M115.673,110.109l-2.459,7.603l-0.977-29.876l6.412,12.751L115.673,110.109z M199.062,272.142
	l5.038,27.429l-30.145,3.008l-0.679-1.402l-12.27-19.437L199.062,272.142z M66.815,190.327V161.21h24.169L66.815,190.327z
	 M66.815,201.408v-8.572l8.732-1.2l3.873,7.027l-3.791,6.876L66.815,201.408z M132.78,103.058l-6.603,14.784l-10.268,7.985
	l-2.503-4.23l3.58-11.07l2.553-8.168l0.024,0.051l0.445-1.543l12.772-14.331V103.058z M131.442,129.15L131.442,129.15l2.598,6.489
	l1.756,5.271l-18.49-13.736l20.639-4.997L131.442,129.15L131.442,129.15z M118.668,125.427l8.58-6.673l0.046-0.035l6.114-13.688
	l5.694,15.449L118.668,125.427z M160.69,280.397l3.059-34.143l34.257,24.731L160.69,280.397z M142.583,247.22l-13.864-26.259
	l33.731,24.355l-3.038,33.898l-3.663-5.802L142.583,247.22z M162.97,243.993l-35.545-25.665v-30.372l66.616,4.884L162.97,243.993z
	 M136.383,167.987l-3.527,11.267l-6.404,7.242l-14.306-1.334l1.18-28.46l0.558-0.238l0.557-0.237l-0.193-0.079l21.291-11.711
	l-6.542,13.085L136.383,167.987z M110.761,185.317L80.514,197.79l-4.217-7.649l-8.507,1.169l24.986-30.1h9.871l9.274-3.915
	L110.761,185.317z M76.791,206.291l3.08-5.588l1.759,9.959L76.791,206.291z M108.839,187.601l-15.614,17.084l-10.073,6.68
	l-2.169-12.278L108.839,187.601z M159.661,282.185l12.4,19.635l0.625,1.295l-16.856,13.293l0.004-32.431L159.661,282.185z
	 M164.843,245.345l32.262-6.67l1.734,31.214L164.843,245.345z M164.582,243.993l30.068-49.503l2.377,42.794L164.582,243.993z
	 M128.172,186.63l5.812-6.572l0.098-0.111l3.632-11.603l53.917-28.186l2.852,51.332L128.172,186.63z M188.712,138.602l-51.085,3.443
	l-2.293-6.879l-2.287-5.715l7.163-7.679l22.446,8.183L188.712,138.602z M102.379,152.749l8.49,3.498l-8.456,3.587h-8.128
	L102.379,152.749z M154.654,274.257l4.268,6.759l-1.75,0.817l-1.75,0.815l-6.98-11.932L154.654,274.257z M254.842,213.609
	l-0.007,27.917l-54.599,28.66l-1.773-31.919L254.842,213.609z M218.08,135.059l-22.345,54.111l-2.752-49.549L218.08,135.059z
	 M141.507,72.727l2.708,17.325l-4.058,17.865l-0.62,9.756l-5.35-14.51L141.507,72.727z M139.689,74.386l-5.531,23.006V84.899
	L139.689,74.386z M140.077,70.691l-6.755,12.838l-5.97-6.689l1.532-0.835L140.077,70.691z M82.016,105.456l0.036,0.001l18.782-0.782
	l-8.665,53.288l-21.308-53.25L82.016,105.456z M55.757,101.74L54.31,79.815L64.315,91.25l4.462,11.896L55.757,101.74z
	 M26.423,70.978v-0.001l5.344,5.939v17.472l-5.344-6.203V70.978z M26.141,69.291l-0.177,0.057v0.432l-0.247-0.273l0.342-0.307
	L26.141,69.291z M37.896,107.276l0.177,18.417l-7.591-18.661l-0.101-0.467L37.896,107.276z M38.17,131.47l0.587,19.935
	l-4.111-14.681L38.17,131.47z M261.426,265.568l-0.068,0.015l-5.145-23.713v-28.861l1.222-0.534l-1.134-0.381l5.147-30.889
	l7.958-3.505l-6.842,18.906l-0.774,0.067l0.585,0.804v71.396l0.297,7.278L261.426,265.568z M270.054,175.908l-9.045,3.984
	l-40.433-45.231l28.866-3.963l37.336-0.689L270.054,175.908z M289.277,232.232l-24.942-34.397l71.549-6.182l-5.977,28.757
	L289.277,232.232z M265.339,292.921l13.132-32.221l10.703-26.262l27.718,38.224L265.339,292.921z M330.904,222.386l6.477-31.168
	l8.731-9.287l-3.499,15.137l-4.459,15.97l-0.61,0.873l0.62,0.059l4.429,40.267l3.609,28.575l-15.298-28.832V222.386z
	 M348.492,177.758l0.113-0.49l-1.301,1.385l-58.006-48.962l39.24-8.012l26.666,8.952l26.94,19.078L348.492,177.758z
	 M346.357,179.658l-9.933,10.567l-72.348,6.25l7.184-19.855l16.816-46.157L346.357,179.658z M352.047,293.828l-4.021-7.581
	l-4.063-32.171l-4.166-37.869l44.69,70.294l-18.032,36.738L352.047,293.828z M340.03,212.76l43.195-61.82l20.643,35.125
	l12.662,33.829L340.03,212.76z M416.502,221.276l-31.306,63.775l-45.075-70.899L416.502,221.276z M444.259,325.493l-50.211,46.748
	l-22.398-38.395l-4.092-8.354H444.259z M444.997,324.114H367.56l18.215-37.108l38.742-14.825L444.997,324.114z M409.521,417.756
	l-18.979-15.328l3.65-26.278L409.521,417.756z M102.44,103.918l8.406-16.493l1.037,31.704L102.44,103.918z M70.136,106.61
	l20.158,50.374l-23.441-27.019L70.136,106.61z M48.333,180.221l-8.033-4.219v-16.929l23.026,30.584L48.333,180.221z
	 M155.434,413.163l-7.17-45.883l19.665,11.029l-0.808,2.958l-6.52,18.75L155.434,413.163z M147.198,369.395l6.903,44.172
	l-14.142-15.929L147.198,369.395z M189.969,419.334l-2.589-5.823l6.873-6.108l6.649-2.418L189.969,419.334z M301.111,374.539
	l-12.308,25.385l-14.176,22.595l0.759-38.899L301.111,374.539z M395.928,376.88l16.835,20.341l-2.105,19.64L395.928,376.88z"/>
</svg>
